<svg fill="none" xmlns="http://www.w3.org/2000/svg" viewBox="0 0 15 15">
  <path d="M3.648 14.373V1.535L5.904 3.79c.074.074.169.11.267.11a.374.374 0 00.267-.64L3.54.364a.385.385 0 00-.53 0L.11 3.26a.374.374 0 000 .53.374.374 0 00.53 0l2.256-2.256v12.838c0 .209.169.378.377.378a.38.38 0 00.374-.378zM11.46 14.637c.073.073.168.11.266.11a.373.373 0 00.267-.11l2.897-2.897a.374.374 0 000-.53.374.374 0 00-.53 0l-2.257 2.256V.626a.377.377 0 10-.754 0v12.84l-2.253-2.257a.374.374 0 00-.53 0 .374.374 0 000 .53l2.893 2.898z" fill="#000"/>
</svg>
